<svg width="100" height="100" viewBox="0 0 100 100" xmlns="http://www.w3.org/2000/svg">
  <defs>
    <linearGradient id="neonGradient" x1="0%" y1="0%" x2="100%" y2="100%">
      <stop offset="0%" style="stop-color:#00ff41;stop-opacity:1" />
      <stop offset="50%" style="stop-color:#00ffff;stop-opacity:1" />
      <stop offset="100%" style="stop-color:#b967ff;stop-opacity:1" />
    </linearGradient>
    <filter id="glow">
      <feGaussianBlur stdDeviation="2" result="coloredBlur"/>
      <feMerge>
        <feMergeNode in="coloredBlur"/>
        <feMergeNode in="SourceGraphic"/>
      </feMerge>
    </filter>
  </defs>
  
  <!-- Background circle -->
  <circle cx="50" cy="50" r="45" fill="#0a0e14" stroke="url(#neonGradient)" stroke-width="2" filter="url(#glow)"/>
  
  <!-- G letter stylized -->
  <path d="M 50 25 Q 35 25 28 35 Q 25 40 25 50 Q 25 60 28 65 Q 35 75 50 75 Q 60 75 67 68 L 67 50 L 55 50 L 55 60 Q 52 65 50 65 Q 42 65 38 58 Q 35 53 35 50 Q 35 47 38 42 Q 42 35 50 35 Q 55 35 60 38 L 65 30 Q 58 25 50 25 Z" 
        fill="url(#neonGradient)" 
        filter="url(#glow)"/>
  
  <!-- Data points/nodes -->
  <circle cx="30" cy="30" r="3" fill="#00ff41" filter="url(#glow)"/>
  <circle cx="70" cy="30" r="3" fill="#00ffff" filter="url(#glow)"/>
  <circle cx="30" cy="70" r="3" fill="#b967ff" filter="url(#glow)"/>
  <circle cx="70" cy="70" r="3" fill="#ff6ac1" filter="url(#glow)"/>
</svg>
